<?xml version="1.0" encoding="iso-8859-1"?>
<!-- Uploaded to: SVG Repo, www.svgrepo.com, Generator: SVG Repo Mixer Tools -->
<svg height="800px" width="800px" version="1.1" id="Layer_1" xmlns="http://www.w3.org/2000/svg" xmlns:xlink="http://www.w3.org/1999/xlink" 
	 viewBox="0 0 496.2 496.2" xml:space="preserve">
<path style="fill:#F4EEEB;" d="M0,248.1C0,111.1,111.1,0,248.1,0s248.1,111.1,248.1,248.1S385.1,496.2,248.1,496.2S0,385.1,0,248.1z
	"/>
<g>
	<polygon style="fill:#007883;" points="326.3,353.8 312.3,346.2 312.7,120.9 326.7,128.5 	"/>
	<polygon style="fill:#00ADBB;" points="326.7,128.5 312.7,120.9 360.9,114.1 374.9,121.7 	"/>
	<polygon style="fill:#00BAD3;" points="374.9,121.7 374.5,347 326.3,353.8 326.7,128.5 	"/>
</g>
<g>
	<polygon style="fill:#007883;" points="262.6,363.2 248.6,355.6 249.1,172.8 263,180.4 	"/>
	<polygon style="fill:#00ADBB;" points="263,180.4 249.1,172.8 297.2,166 311.2,173.6 	"/>
	<polygon style="fill:#00BAD3;" points="311.2,173.6 310.8,356.4 262.6,363.2 263,180.4 	"/>
	<polygon style="fill:#007883;" points="199,372.6 185,365 185.4,234.1 199.4,241.7 	"/>
	<polygon style="fill:#00ADBB;" points="199.4,241.7 185.4,234.1 233.6,227.3 247.5,234.9 	"/>
	<polygon style="fill:#00BAD3;" points="247.5,234.9 247.1,365.9 199,372.6 199.4,241.7 	"/>
	<polygon style="fill:#007883;" points="135.3,382.1 121.3,374.5 121.7,293 135.7,300.6 	"/>
	<polygon style="fill:#00ADBB;" points="135.7,300.6 121.7,293 169.9,286.3 183.9,293.9 	"/>
	<polygon style="fill:#00BAD3;" points="183.9,293.9 183.5,375.3 135.3,382.1 135.7,300.6 	"/>
</g>
</svg>