<?xml version="1.0" standalone="yes"?>
<svg xmlns="http://www.w3.org/2000/svg" width="960" height="960">
<path style="fill:#47714d; stroke:none;" d="M0 0L0 153L1 153C1.20513 78.661 77.5396 1.57574 152 1C140.068 -4.00677 118.991 0 106 0L0 0z"/>
<path style="fill:#fd870f; stroke:none;" d="M152 0.424377C82.4954 9.63922 26.9642 54.3559 6.02546 122C-1.59504 146.619 0 172.574 0 198L0 308L0 684C0 752.491 -11.7824 829.935 30.4275 889C56.8031 925.908 97.8625 952.091 143 958.572C175.155 963.189 209.544 960 242 960L625 960L748 960C772.118 960 797.152 961.937 821 957.919C886.205 946.934 939.671 895.798 955.625 832C961.743 807.536 960 782.006 960 757L960 645L960 276C960 204.282 971.746 125.583 925.113 65C899.061 31.1553 859.386 7.51398 817 1.42822C782.612 -3.50916 745.714 0 711 0L337 0L215 0C194.446 0 172.373 -2.27661 152 0.424377z"/>
<path style="fill:#47714d; stroke:none;" d="M807 0L807 1C881.736 1.04962 958.95 78.2642 959 153L960 153L960 0L807 0z"/>
<path style="fill:#ffc57f; stroke:none;" d="M180 217L180 218L778 218L761 217L726 217L604 217L180 217M173.667 218.333L174.333 218.667L173.667 218.333z"/>
<path style="fill:#ffddbd; stroke:none;" d="M175 218L175 219L178 219L175 218z"/>
<path style="fill:#ffffff; stroke:none;" d="M563 739C558.594 715.281 557.192 690.898 553.87 667C552.471 656.936 552.734 643.555 546.351 635.09C541.034 628.039 531.289 623.391 524 618.657C507.645 608.033 490.578 598.858 476.015 585.714C451.812 563.871 435.348 530.18 416.116 504C407.904 492.822 400.12 481.345 392.144 470C387.771 463.78 383.055 454.869 385.264 447C393.236 418.604 421.665 446.722 430.576 457C444.974 473.606 460.182 489.516 474.715 506C483.493 515.957 492.355 528.433 503.001 536.39C517.486 547.217 538.359 553.8 556 556.971C568.805 559.272 583.013 557.667 596 557.667C624.015 557.667 651.973 557 680 557C701.436 557 722.778 555.65 742 566.877C753.91 573.833 763.505 586.547 772.246 597C788.589 616.544 803.937 636.896 819.576 657C825.966 665.215 831.913 675.417 840 682C840.068 579.103 841 475.986 841 373L841 309C841 286.702 840.945 264.797 827.076 246C806.481 218.088 776.286 218 745 218L681 218L282 218L213 218C180.784 218 148.887 218.051 128.749 248C116.543 266.154 117 285.081 117 306L117 364L117 635C117 674.646 116.223 719.475 162 734.996C178.194 740.487 195.143 739 212 739L291 739L563 739z"/>
<path style="fill:#ffddbd; stroke:none;" d="M779 218L779 219L782 219L779 218z"/>
<path style="fill:#ffc57f; stroke:none;" d="M782.667 218.333L783.333 218.667L782.667 218.333M169 219L170 220L169 219z"/>
<path style="fill:#ffddbd; stroke:none;" d="M170.667 219.333L171.333 219.667L170.667 219.333M785.667 219.333L786.333 219.667L785.667 219.333z"/>
<path style="fill:#ffc57f; stroke:none;" d="M787 219L788 220L787 219M165 220L166 221L165 220z"/>
<path style="fill:#ffddbd; stroke:none;" d="M166.667 220.333L167.333 220.667L166.667 220.333M789.667 220.333L790.333 220.667L789.667 220.333z"/>
<path style="fill:#ffc57f; stroke:none;" d="M791 220L792 221L791 220M162 221L163 222L162 221z"/>
<path style="fill:#ffddbd; stroke:none;" d="M163.667 221.333L164.333 221.667L163.667 221.333M793 221L794 222L793 221z"/>
<path style="fill:#ffc57f; stroke:none;" d="M794 221L795 222L794 221M160 222L161 223L160 222z"/>
<path style="fill:#ffddbd; stroke:none;" d="M161 222L162 223L161 222M796 222L797 223L796 222M158 223L159 224L158 223M798 223L799 224L798 223z"/>
<path style="fill:#ffc57f; stroke:none;" d="M799 223L800 224L799 223z"/>
<path style="fill:#ffddbd; stroke:none;" d="M156 224L157 225L156 224M800 224L801 225L800 224z"/>
<path style="fill:#ffc57f; stroke:none;" d="M801 224L802 225L801 224z"/>
<path style="fill:#ffddbd; stroke:none;" d="M154 225L155 226L154 225M802 225L803 226L802 225z"/>
<path style="fill:#ffc57f; stroke:none;" d="M803 225L804 226L803 225z"/>
<path style="fill:#ffddbd; stroke:none;" d="M152 226L153 227L152 226M804 226L805 227L804 226z"/>
<path style="fill:#ffc57f; stroke:none;" d="M150 227L151 228L150 227z"/>
<path style="fill:#ffddbd; stroke:none;" d="M806 227L807 228L806 227z"/>
<path style="fill:#ffc57f; stroke:none;" d="M148 228L149 229L148 228M808 228L809 229L808 228z"/>
<path style="fill:#ffddbd; stroke:none;" d="M147 229L148 230L147 229M809 229L810 230L809 229z"/>
<path style="fill:#ffc57f; stroke:none;" d="M811 230L812 231L811 230M144 231L145 232L144 231z"/>
<path style="fill:#ffddbd; stroke:none;" d="M812 231L813 232L812 231M143 232L144 233L143 232M813 232L814 233L813 232M142 233L143 234L142 233z"/>
<path style="fill:#ffc57f; stroke:none;" d="M815 233L816 234L815 233M140 234L141 235L140 234M816 234L817 235L816 234M139 235L140 236L139 235M817 235L818 236L817 235M138 236L139 237L138 236z"/>
<path style="fill:#ffddbd; stroke:none;" d="M818 236L819 237L818 236z"/>
<path style="fill:#ffc57f; stroke:none;" d="M137 237L138 238L137 237z"/>
<path style="fill:#ffddbd; stroke:none;" d="M819 237L820 238L819 237z"/>
<path style="fill:#ffc57f; stroke:none;" d="M136 238L137 239L136 238z"/>
<path style="fill:#ffddbd; stroke:none;" d="M820 238L821 239L820 238z"/>
<path style="fill:#ffc57f; stroke:none;" d="M135 239L136 240L135 239z"/>
<path style="fill:#ffddbd; stroke:none;" d="M821 239L822 240L821 239z"/>
<path style="fill:#ffc57f; stroke:none;" d="M134 240L135 241L134 240z"/>
<path style="fill:#ffddbd; stroke:none;" d="M822 240L823 241L822 240z"/>
<path style="fill:#ffc57f; stroke:none;" d="M133 241L134 242L133 241M823 241L824 242L823 241M824 242L825 243L824 242z"/>
<path style="fill:#ffddbd; stroke:none;" d="M131 244L132 245L131 244M130 245L131 246L130 245M826 245L827 246L826 245z"/>
<path style="fill:#ffc57f; stroke:none;" d="M129 246L130 247L129 246M827 246L828 247L827 246z"/>
<path style="fill:#ffddbd; stroke:none;" d="M128 248L129 249L128 248z"/>
<path style="fill:#ffc57f; stroke:none;" d="M127 249L128 250L127 249M829 249L830 250L829 249z"/>
<path style="fill:#ffddbd; stroke:none;" d="M126 251L127 252L126 251M830 251L831 252L830 251z"/>
<path style="fill:#ffc57f; stroke:none;" d="M831 252L832 253L831 252z"/>
<path style="fill:#ffddbd; stroke:none;" d="M125 253L126 254L125 253z"/>
<path style="fill:#ffc57f; stroke:none;" d="M124 254L125 255L124 254M832 254L833 255L832 254z"/>
<path style="fill:#ffddbd; stroke:none;" d="M124 255L125 256L124 255z"/>
<path style="fill:#ffc57f; stroke:none;" d="M123 256L124 257L123 256M833 256L834 257L833 256z"/>
<path style="fill:#ffddbd; stroke:none;" d="M123 257L124 258L123 257z"/>
<path style="fill:#ffc57f; stroke:none;" d="M122 258L123 259L122 258M834 258L835 259L834 258z"/>
<path style="fill:#ffddbd; stroke:none;" d="M122 259L123 260L122 259z"/>
<path style="fill:#ffc57f; stroke:none;" d="M121.333 260.667L121.667 261.333L121.333 260.667M835 260L836 261L835 260z"/>
<path style="fill:#ffddbd; stroke:none;" d="M835 261L836 262L835 261z"/>
<path style="fill:#ffc57f; stroke:none;" d="M836.333 262.667L836.667 263.333L836.333 262.667M120 263L121 264L120 263z"/>
<path style="fill:#ffddbd; stroke:none;" d="M120 264L121 265L120 264z"/>
<path style="fill:#ffc57f; stroke:none;" d="M837.333 265.667L837.667 266.333L837.333 265.667M119 266L120 267L119 266z"/>
<path style="fill:#ffddbd; stroke:none;" d="M119 267L120 268L119 267z"/>
<path style="fill:#ffc57f; stroke:none;" d="M838.333 268.667L838.667 269.333L838.333 268.667M118.333 269.667L118.667 270.333L118.333 269.667z"/>
<path style="fill:#ffddbd; stroke:none;" d="M838 270L839 271L838 270z"/>
<path style="fill:#ffc57f; stroke:none;" d="M839.333 272.667L839.667 273.333L839.333 272.667M117.333 273.667L117.667 274.333L117.333 273.667z"/>
<path style="fill:#ffddbd; stroke:none;" d="M839.333 274.667L839.667 275.333L839.333 274.667M117.333 275.667L117.667 276.333L117.333 275.667z"/>
<path style="fill:#ffc57f; stroke:none;" d="M840 278L840 281L841 281L840 278M116 279L116 283L117 283L116 279z"/>
<path style="fill:#ffddbd; stroke:none;" d="M840 281L840 284L841 284L840 281M116 283L116 674L117 674L117 397L117 318L116 283z"/>
<path style="fill:#fd870f; stroke:none;" d="M182 284L182 306L457 306L457 284L182 284z"/>
<path style="fill:#ffc57f; stroke:none;" d="M457 284L457 306L182 306L182 307L397 307L440 307C444.125 307 453 308.662 456.397 305.972C460.079 303.055 458.631 287.887 457 284z"/>
<path style="fill:#ffddbd; stroke:none;" d="M181 305L182 306L181 305M457 306L458 307L457 306z"/>
<path style="fill:#fd870f; stroke:none;" d="M182 330L182 352L457 352L457 330L182 330z"/>
<path style="fill:#ffc57f; stroke:none;" d="M457 330L457 352L182 352L182 353L397 353L440 353C444.125 353 453 354.662 456.397 351.972C460.079 349.055 458.631 333.887 457 330z"/>
<path style="fill:#ffddbd; stroke:none;" d="M181 351L182 352L181 351M457 352L458 353L457 352z"/>
<path style="fill:#fd870f; stroke:none;" d="M182 375L182 397L457 397L457 375L182 375z"/>
<path style="fill:#ffc57f; stroke:none;" d="M457 375L457 397L182 397L182 398L397 398L440 398C444.125 398 453 399.662 456.397 396.972C460.079 394.055 458.631 378.887 457 375z"/>
<path style="fill:#ffddbd; stroke:none;" d="M645.667 390.333L646.333 390.667L645.667 390.333z"/>
<path style="fill:#ffc57f; stroke:none;" d="M647 390L647 391L650 391L647 390z"/>
<path style="fill:#fd870f; stroke:none;" d="M650 390.425C609.344 395.957 584.368 434.216 588.17 474C591.715 511.104 622.062 546.621 662 541.714C705.991 536.308 730.4 488.911 721.112 448C713.903 416.247 685.128 385.646 650 390.425z"/>
<path style="fill:#ffc57f; stroke:none;" d="M660 390L660 391L664 391L660 390z"/>
<path style="fill:#ffddbd; stroke:none;" d="M664 390L665 391L664 390M641 391L642 392L641 391z"/>
<path style="fill:#ffc57f; stroke:none;" d="M642 391L643 392L642 391M667.667 391.333L668.333 391.667L667.667 391.333z"/>
<path style="fill:#ffddbd; stroke:none;" d="M669 391L670 392L669 391M637 392L638 393L637 392z"/>
<path style="fill:#ffc57f; stroke:none;" d="M638 392L639 393L638 392M672 392L673 393L672 392z"/>
<path style="fill:#ffddbd; stroke:none;" d="M673 392L674 393L673 392M634 393L635 394L634 393z"/>
<path style="fill:#ffc57f; stroke:none;" d="M635 393L636 394L635 393M675 393L676 394L675 393z"/>
<path style="fill:#ffddbd; stroke:none;" d="M676 393L677 394L676 393M631 394L632 395L631 394z"/>
<path style="fill:#ffc57f; stroke:none;" d="M632 394L633 395L632 394M678 394L679 395L678 394z"/>
<path style="fill:#ffddbd; stroke:none;" d="M679 394L680 395L679 394M629 395L630 396L629 395z"/>
<path style="fill:#ffc57f; stroke:none;" d="M630 395L631 396L630 395M680 395L681 396L680 395z"/>
<path style="fill:#ffddbd; stroke:none;" d="M681 395L682 396L681 395M181 396L182 397L181 396M627 396L628 397L627 396z"/>
<path style="fill:#ffc57f; stroke:none;" d="M628 396L629 397L628 396M682 396L683 397L682 396z"/>
<path style="fill:#ffddbd; stroke:none;" d="M683 396L684 397L683 396M457 397L458 398L457 397M625 397L626 398L625 397z"/>
<path style="fill:#ffc57f; stroke:none;" d="M626 397L627 398L626 397M684 397L685 398L684 397z"/>
<path style="fill:#ffddbd; stroke:none;" d="M685 397L686 398L685 397z"/>
<path style="fill:#ffc57f; stroke:none;" d="M624 398L625 399L624 398M686 398L687 399L686 398M622 399L623 400L622 399z"/>
<path style="fill:#ffddbd; stroke:none;" d="M688 399L689 400L688 399M620 400L621 401L620 400z"/>
<path style="fill:#ffc57f; stroke:none;" d="M689 400L690 401L689 400M619 401L620 402L619 401z"/>
<path style="fill:#ffddbd; stroke:none;" d="M691 401L692 402L691 401z"/>
<path style="fill:#ffc57f; stroke:none;" d="M618 402L619 403L618 402M692 402L693 403L692 402z"/>
<path style="fill:#ffddbd; stroke:none;" d="M616 403L617 404L616 403z"/>
<path style="fill:#ffc57f; stroke:none;" d="M615 404L616 405L615 404z"/>
<path style="fill:#ffddbd; stroke:none;" d="M695 404L696 405L695 404z"/>
<path style="fill:#ffc57f; stroke:none;" d="M614 405L615 406L614 405M696 405L697 406L696 405M613 406L614 407L613 406M697 406L698 407L697 406M698 407L699 408L698 407M699 408L700 409L699 408M700 409L701 410L700 409M701 410L702 411L701 410M702 411L703 412L702 411M607 412L608 413L607 412M703 412L704 413L703 412M606 413L607 414L606 413z"/>
<path style="fill:#ffddbd; stroke:none;" d="M704 413L705 414L704 413z"/>
<path style="fill:#ffc57f; stroke:none;" d="M605 414L606 415L605 414z"/>
<path style="fill:#ffddbd; stroke:none;" d="M705 414L706 415L705 414M604 415L605 416L604 415z"/>
<path style="fill:#ffc57f; stroke:none;" d="M603 417L604 418L603 417M707 417L708 418L707 417M602 418L603 419L602 418z"/>
<path style="fill:#ffddbd; stroke:none;" d="M708 418L709 419L708 418M601 419L602 420L601 419z"/>
<path style="fill:#ffc57f; stroke:none;" d="M709 420L710 421L709 420M600 421L601 422L600 421z"/>
<path style="fill:#ffddbd; stroke:none;" d="M710 421L711 422L710 421M599 422L600 423L599 422z"/>
<path style="fill:#ffc57f; stroke:none;" d="M711 423L712 424L711 423z"/>
<path style="fill:#ffddbd; stroke:none;" d="M598 424L599 425L598 424M712 424L713 425L712 424z"/>
<path style="fill:#ffc57f; stroke:none;" d="M712 425L713 426L712 425M597 426L598 427L597 426z"/>
<path style="fill:#ffddbd; stroke:none;" d="M713 426L714 427L713 426z"/>
<path style="fill:#ffc57f; stroke:none;" d="M596 428L597 429L596 428z"/>
<path style="fill:#ffddbd; stroke:none;" d="M714 428L715 429L714 428z"/>
<path style="fill:#ffc57f; stroke:none;" d="M595 430L596 431L595 430z"/>
<path style="fill:#ffddbd; stroke:none;" d="M715 430L716 431L715 430z"/>
<path style="fill:#ffc57f; stroke:none;" d="M715 431L716 432L715 431M594 432L595 433L594 432z"/>
<path style="fill:#ffddbd; stroke:none;" d="M716 432L717 433L716 432z"/>
<path style="fill:#ffc57f; stroke:none;" d="M716 433L717 434L716 433z"/>
<path style="fill:#ffddbd; stroke:none;" d="M593 434L594 435L593 434M717 434L718 435L717 434z"/>
<path style="fill:#ffc57f; stroke:none;" d="M396.667 435.333L397.333 435.667L396.667 435.333M404 435L405 436L404 435z"/>
<path style="fill:#ffddbd; stroke:none;" d="M405 435L406 436L405 435z"/>
<path style="fill:#ffc57f; stroke:none;" d="M593 435L594 436L593 435M717 435L718 436L717 435z"/>
<path style="fill:#ffddbd; stroke:none;" d="M393 436L394 437L393 436z"/>
<path style="fill:#ffc57f; stroke:none;" d="M394 436L395 437L394 436M407 436L408 437L407 436z"/>
<path style="fill:#ffddbd; stroke:none;" d="M408 436L409 437L408 436M592 436L593 437L592 436M391 437L392 438L391 437z"/>
<path style="fill:#ffc57f; stroke:none;" d="M392 437L393 438L392 437z"/>
<path style="fill:#ffddbd; stroke:none;" d="M410 437L411 438L410 437z"/>
<path style="fill:#ffc57f; stroke:none;" d="M592.333 437.667L592.667 438.333L592.333 437.667z"/>
<path style="fill:#ffddbd; stroke:none;" d="M718 437L719 438L718 437M390 438L391 439L390 438M412 438L413 439L412 438z"/>
<path style="fill:#ffc57f; stroke:none;" d="M718 438L719 439L718 438M389 439L390 440L389 439M413 439L414 440L413 439z"/>
<path style="fill:#ffddbd; stroke:none;" d="M591 439L592 440L591 439z"/>
<path style="fill:#ffc57f; stroke:none;" d="M388 440L389 441L388 440z"/>
<path style="fill:#ffddbd; stroke:none;" d="M415 440L416 441L415 440z"/>
<path style="fill:#ffc57f; stroke:none;" d="M591.333 440.667L591.667 441.333L591.333 440.667z"/>
<path style="fill:#ffddbd; stroke:none;" d="M719 440L720 441L719 440M387 441L388 442L387 441M416 441L417 442L416 441z"/>
<path style="fill:#ffc57f; stroke:none;" d="M719 441L720 442L719 441z"/>
<path style="fill:#ffddbd; stroke:none;" d="M417 442L418 443L417 442M590.333 442.667L590.667 443.333L590.333 442.667z"/>
<path style="fill:#ffc57f; stroke:none;" d="M386 443L387 444L386 443M418 443L419 444L418 443z"/>
<path style="fill:#ffddbd; stroke:none;" d="M720 443L721 444L720 443z"/>
<path style="fill:#ffc57f; stroke:none;" d="M419 444L420 445L419 444M590 444L591 445L590 444M720.333 444.667L720.667 445.333L720.333 444.667M385.333 445.667L385.667 446.333L385.333 445.667z"/>
<path style="fill:#ffddbd; stroke:none;" d="M420 445L421 446L420 445M421 446L422 447L421 446M589.333 446.667L589.667 447.333L589.333 446.667M422 447L423 448L422 447M721.333 447.667L721.667 448.333L721.333 447.667z"/>
<path style="fill:#ffc57f; stroke:none;" d="M589.333 448.667L589.667 449.333L589.333 448.667z"/>
<path style="fill:#ffddbd; stroke:none;" d="M384 449L384 452L385 452L384 449z"/>
<path style="fill:#ffc57f; stroke:none;" d="M721 449L722 450L721 449M424 450L425 451L424 450M425 451L426 452L425 451z"/>
<path style="fill:#ffddbd; stroke:none;" d="M588.333 451.667L588.667 452.333L588.333 451.667z"/>
<path style="fill:#ffc57f; stroke:none;" d="M426 452L427 453L426 452z"/>
<path style="fill:#ffddbd; stroke:none;" d="M722.333 452.667L722.667 453.333L722.333 452.667z"/>
<path style="fill:#ffc57f; stroke:none;" d="M427 453L428 454L427 453M588 453L588 456L589 456L588 453M385 454L385 457L386 457L385 454M428 454L429 455L428 454M722 454L722 457L723 457L722 454z"/>
<path style="fill:#ffddbd; stroke:none;" d="M429 455L430 456L429 455M430 456L431 457L430 456z"/>
<path style="fill:#ffc57f; stroke:none;" d="M386 459L387 460L386 459z"/>
<path style="fill:#ffddbd; stroke:none;" d="M587 459L587 464L588 464L587 459z"/>
<path style="fill:#ffc57f; stroke:none;" d="M433 460L434 461L433 460M387 461L388 462L387 461M434 461L435 462L434 461z"/>
<path style="fill:#ffddbd; stroke:none;" d="M387 462L388 463L387 462z"/>
<path style="fill:#ffc57f; stroke:none;" d="M435 462L436 463L435 462z"/>
<path style="fill:#ffddbd; stroke:none;" d="M723 462L723 470L724 470L723 462z"/>
<path style="fill:#ffc57f; stroke:none;" d="M436 463L437 464L436 463z"/>
<path style="fill:#ffddbd; stroke:none;" d="M388 464L389 465L388 464M437 464L438 465L437 464z"/>
<path style="fill:#ffc57f; stroke:none;" d="M587 464L588 465L587 464z"/>
<path style="fill:#ffddbd; stroke:none;" d="M438 465L439 466L438 465M587 465L588 466L587 465M389 466L390 467L389 466M439 466L440 467L439 466z"/>
<path style="fill:#ffc57f; stroke:none;" d="M587 466L588 467L587 466M390 467L391 468L390 467z"/>
<path style="fill:#ffddbd; stroke:none;" d="M587 467L587 473L588 473L587 467M391 469L392 470L391 469z"/>
<path style="fill:#ffc57f; stroke:none;" d="M392 470L393 471L392 470M442 470L443 471L442 470M443 471L444 472L443 471M444 472L445 473L444 472M394 473L395 474L394 473M445 473L446 474L445 473M395 474L396 475L395 474z"/>
<path style="fill:#ffddbd; stroke:none;" d="M446 474L447 475L446 474M447 475L448 476L447 475z"/>
<path style="fill:#ffc57f; stroke:none;" d="M722 475L722 478L723 478L722 475z"/>
<path style="fill:#ffddbd; stroke:none;" d="M396 476L397 477L396 476M448 476L449 477L448 476z"/>
<path style="fill:#ffc57f; stroke:none;" d="M588 476L588 479L589 479L588 476M397 477L398 478L397 477z"/>
<path style="fill:#ffddbd; stroke:none;" d="M722.333 478.667L722.667 479.333L722.333 478.667M398 479L399 480L398 479z"/>
<path style="fill:#ffc57f; stroke:none;" d="M450 479L451 480L450 479z"/>
<path style="fill:#ffddbd; stroke:none;" d="M588.333 479.667L588.667 480.333L588.333 479.667z"/>
<path style="fill:#ffc57f; stroke:none;" d="M399 480L400 481L399 480M451 480L452 481L451 480M400 481L401 482L400 481M452 481L453 482L452 481z"/>
<path style="fill:#ffddbd; stroke:none;" d="M400 482L401 483L400 482z"/>
<path style="fill:#ffc57f; stroke:none;" d="M453 482L454 483L453 482M721.333 482.667L721.667 483.333L721.333 482.667z"/>
<path style="fill:#ffddbd; stroke:none;" d="M401 483L402 484L401 483M454 483L455 484L454 483z"/>
<path style="fill:#ffc57f; stroke:none;" d="M589.333 483.667L589.667 484.333L589.333 483.667M402 484L403 485L402 484z"/>
<path style="fill:#ffddbd; stroke:none;" d="M455 484L456 485L455 484M721 484L722 485L721 484M456 485L457 486L456 485M589 485L590 486L589 485M403 486L404 487L403 486z"/>
<path style="fill:#ffc57f; stroke:none;" d="M720.333 486.667L720.667 487.333L720.333 486.667M404 487L405 488L404 487M590.333 487.667L590.667 488.333L590.333 487.667z"/>
<path style="fill:#ffddbd; stroke:none;" d="M720 488L721 489L720 488z"/>
<path style="fill:#ffc57f; stroke:none;" d="M459 489L460 490L459 489z"/>
<path style="fill:#ffddbd; stroke:none;" d="M590 489L591 490L590 489z"/>
<path style="fill:#ffc57f; stroke:none;" d="M406 490L407 491L406 490M460 490L461 491L460 490M719 490L720 491L719 490M407 491L408 492L407 491M461 491L462 492L461 491M591 491L592 492L591 491z"/>
<path style="fill:#ffddbd; stroke:none;" d="M719 491L720 492L719 491M407 492L408 493L407 492z"/>
<path style="fill:#ffc57f; stroke:none;" d="M462 492L463 493L462 492z"/>
<path style="fill:#ffddbd; stroke:none;" d="M591 492L592 493L591 492M408 493L409 494L408 493M463 493L464 494L463 493z"/>
<path style="fill:#ffc57f; stroke:none;" d="M718 493L719 494L718 493M409 494L410 495L409 494z"/>
<path style="fill:#ffddbd; stroke:none;" d="M464 494L465 495L464 494z"/>
<path style="fill:#ffc57f; stroke:none;" d="M592 494L593 495L592 494z"/>
<path style="fill:#ffddbd; stroke:none;" d="M718 494L719 495L718 494M465 495L466 496L465 495M592 495L593 496L592 495M410 496L411 497L410 496z"/>
<path style="fill:#ffc57f; stroke:none;" d="M593.333 496.667L593.667 497.333L593.333 496.667M717 496L718 497L717 496M411 497L412 498L411 497z"/>
<path style="fill:#ffddbd; stroke:none;" d="M717 497L718 498L717 497z"/>
<path style="fill:#ffc57f; stroke:none;" d="M412 498L413 499L412 498M716 498L717 499L716 498z"/>
<path style="fill:#ffddbd; stroke:none;" d="M412 499L413 500L412 499z"/>
<path style="fill:#ffc57f; stroke:none;" d="M468 499L469 500L468 499M594 499L595 500L594 499z"/>
<path style="fill:#ffddbd; stroke:none;" d="M716 499L717 500L716 499M413 500L414 501L413 500z"/>
<path style="fill:#ffc57f; stroke:none;" d="M469 500L470 501L469 500M414 501L415 502L414 501M470 501L471 502L470 501M595 501L596 502L595 501M715 501L716 502L715 501M471 502L472 503L471 502z"/>
<path style="fill:#ffddbd; stroke:none;" d="M595 502L596 503L595 502M415 503L416 504L415 503M472 503L473 504L472 503z"/>
<path style="fill:#ffc57f; stroke:none;" d="M596 503L597 504L596 503M714 503L715 504L714 503M416 504L417 505L416 504z"/>
<path style="fill:#ffddbd; stroke:none;" d="M473 504L474 505L473 504M596 504L597 505L596 504M474 505L475 506L474 505z"/>
<path style="fill:#ffc57f; stroke:none;" d="M597 505L598 506L597 505M713 505L714 506L713 505z"/>
<path style="fill:#ffddbd; stroke:none;" d="M475 506L476 507L475 506z"/>
<path style="fill:#ffc57f; stroke:none;" d="M418 507L419 508L418 507M598 507L599 508L598 507z"/>
<path style="fill:#ffddbd; stroke:none;" d="M712 507L713 508L712 507z"/>
<path style="fill:#ffc57f; stroke:none;" d="M419 508L420 509L419 508M711 508L712 509L711 508M477 509L478 510L477 509z"/>
<path style="fill:#ffddbd; stroke:none;" d="M599 509L600 510L599 509M711 509L712 510L711 509M420 510L421 511L420 510z"/>
<path style="fill:#ffc57f; stroke:none;" d="M478 510L479 511L478 510M600 510L601 511L600 510M710 510L711 511L710 510M421 511L422 512L421 511M479 511L480 512L479 511M480 512L481 513L480 512z"/>
<path style="fill:#ffddbd; stroke:none;" d="M601 512L602 513L601 512M709 512L710 513L709 512M422 513L423 514L422 513z"/>
<path style="fill:#ffc57f; stroke:none;" d="M481 513L482 514L481 513M602 513L603 514L602 513M708 513L709 514L708 513M423 514L424 515L423 514z"/>
<path style="fill:#ffddbd; stroke:none;" d="M482 514L483 515L482 514z"/>
<path style="fill:#ffc57f; stroke:none;" d="M707 514L708 515L707 514M424 515L425 516L424 515z"/>
<path style="fill:#ffddbd; stroke:none;" d="M483 515L484 516L483 515M603 515L604 516L603 515M484 516L485 517L484 516z"/>
<path style="fill:#ffc57f; stroke:none;" d="M604 516L605 517L604 516z"/>
<path style="fill:#ffddbd; stroke:none;" d="M706 516L707 517L706 516M425 517L426 518L425 517z"/>
<path style="fill:#ffc57f; stroke:none;" d="M605 517L606 518L605 517M705 517L706 518L705 517M426 518L427 519L426 518M704 518L705 519L704 518M703 519L704 520L703 519z"/>
<path style="fill:#ffddbd; stroke:none;" d="M427 520L428 521L427 520z"/>
<path style="fill:#ffc57f; stroke:none;" d="M487 520L488 521L487 520M428 521L429 522L428 521M488 521L489 522L488 521M489 522L490 523L489 522z"/>
<path style="fill:#ffddbd; stroke:none;" d="M609 522L610 523L609 522z"/>
<path style="fill:#ffc57f; stroke:none;" d="M490 523L491 524L490 523z"/>
<path style="fill:#ffddbd; stroke:none;" d="M610 523L611 524L610 523z"/>
<path style="fill:#ffc57f; stroke:none;" d="M430 524L431 525L430 524M491 524L492 525L491 524M431 525L432 526L431 525z"/>
<path style="fill:#ffddbd; stroke:none;" d="M492 525L493 526L492 525z"/>
<path style="fill:#ffc57f; stroke:none;" d="M697 525L698 526L697 525z"/>
<path style="fill:#ffddbd; stroke:none;" d="M493 526L494 527L493 526z"/>
<path style="fill:#ffc57f; stroke:none;" d="M614 526L615 527L614 526M696 526L697 527L696 526z"/>
<path style="fill:#ffddbd; stroke:none;" d="M432 527L433 528L432 527M494 527L495 528L494 527z"/>
<path style="fill:#ffc57f; stroke:none;" d="M615 527L616 528L615 527M695 527L696 528L695 527M433 528L434 529L433 528z"/>
<path style="fill:#ffddbd; stroke:none;" d="M495 528L496 529L495 528z"/>
<path style="fill:#ffc57f; stroke:none;" d="M616 528L617 529L616 528z"/>
<path style="fill:#ffddbd; stroke:none;" d="M694 528L695 529L694 528M617 529L618 530L617 529z"/>
<path style="fill:#ffc57f; stroke:none;" d="M692 529L693 530L692 529z"/>
<path style="fill:#ffddbd; stroke:none;" d="M434 530L435 531L434 530z"/>
<path style="fill:#ffc57f; stroke:none;" d="M619 530L620 531L619 530M691 530L692 531L691 530M435 531L436 532L435 531M620 531L621 532L620 531z"/>
<path style="fill:#ffddbd; stroke:none;" d="M690 531L691 532L690 531z"/>
<path style="fill:#ffc57f; stroke:none;" d="M436 532L437 533L436 532M498 532L499 533L498 532M622 532L623 533L622 532M688 532L689 533L688 532z"/>
<path style="fill:#ffddbd; stroke:none;" d="M436 533L437 534L436 533z"/>
<path style="fill:#ffc57f; stroke:none;" d="M499 533L500 534L499 533z"/>
<path style="fill:#ffddbd; stroke:none;" d="M623 533L624 534L623 533z"/>
<path style="fill:#ffc57f; stroke:none;" d="M686 533L687 534L686 533z"/>
<path style="fill:#ffddbd; stroke:none;" d="M687 533L688 534L687 533M437 534L438 535L437 534z"/>
<path style="fill:#ffc57f; stroke:none;" d="M500 534L501 535L500 534M625 534L626 535L625 534z"/>
<path style="fill:#ffddbd; stroke:none;" d="M685 534L686 535L685 534z"/>
<path style="fill:#ffc57f; stroke:none;" d="M438 535L439 536L438 535M501 535L502 536L501 535M627 535L628 536L627 535z"/>
<path style="fill:#ffddbd; stroke:none;" d="M683 535L684 536L683 535z"/>
<path style="fill:#ffc57f; stroke:none;" d="M629 536L630 537L629 536z"/>
<path style="fill:#ffddbd; stroke:none;" d="M681 536L682 537L681 536M439 537L440 538L439 537z"/>
<path style="fill:#ffc57f; stroke:none;" d="M504 537L505 538L504 537z"/>
<path style="fill:#ffddbd; stroke:none;" d="M631 537L632 538L631 537z"/>
<path style="fill:#ffc57f; stroke:none;" d="M678 537L679 538L678 537z"/>
<path style="fill:#ffddbd; stroke:none;" d="M679 537L680 538L679 537z"/>
<path style="fill:#ffc57f; stroke:none;" d="M440 538L441 539L440 538M505 538L506 539L505 538z"/>
<path style="fill:#ffddbd; stroke:none;" d="M506 538L507 539L506 538M633 538L634 539L633 538z"/>
<path style="fill:#ffc57f; stroke:none;" d="M634 538L635 539L634 538M676 538L677 539L676 538M441 539L442 540L441 539M507 539L508 540L507 539z"/>
<path style="fill:#ffddbd; stroke:none;" d="M636 539L637 540L636 539z"/>
<path style="fill:#ffc57f; stroke:none;" d="M637 539L638 540L637 539M672.667 539.333L673.333 539.667L672.667 539.333z"/>
<path style="fill:#ffddbd; stroke:none;" d="M441 540L442 541L441 540M509 540L510 541L509 540M640 540L641 541L640 540z"/>
<path style="fill:#ffc57f; stroke:none;" d="M641 540L642 541L641 540M669 540L670 541L669 540z"/>
<path style="fill:#ffddbd; stroke:none;" d="M670 540L671 541L670 540M442 541L443 542L442 541M511 541L512 542L511 541M644 541L645 542L644 541z"/>
<path style="fill:#ffc57f; stroke:none;" d="M645 541L645 542L648 542L645 541M663.667 541.333L664.333 541.667L663.667 541.333z"/>
<path style="fill:#ffddbd; stroke:none;" d="M665.667 541.333L666.333 541.667L665.667 541.333z"/>
<path style="fill:#ffc57f; stroke:none;" d="M443 542L444 543L443 542M512 542L513 543L512 542z"/>
<path style="fill:#ffddbd; stroke:none;" d="M513 542L514 543L513 542M652 542L652 543L658 543L652 542z"/>
<path style="fill:#ffc57f; stroke:none;" d="M514 543L515 544L514 543z"/>
<path style="fill:#ffddbd; stroke:none;" d="M515 543L516 544L515 543M444 544L445 545L444 544z"/>
<path style="fill:#ffc57f; stroke:none;" d="M516 544L517 545L516 544z"/>
<path style="fill:#ffddbd; stroke:none;" d="M517 544L518 545L517 544z"/>
<path style="fill:#ffc57f; stroke:none;" d="M445 545L446 546L445 545z"/>
<path style="fill:#ffddbd; stroke:none;" d="M519 545L520 546L519 545z"/>
<path style="fill:#ffc57f; stroke:none;" d="M521 546L522 547L521 546z"/>
<path style="fill:#ffddbd; stroke:none;" d="M522 546L523 547L522 546z"/>
<path style="fill:#ffc57f; stroke:none;" d="M523 547L524 548L523 547z"/>
<path style="fill:#ffddbd; stroke:none;" d="M524 547L525 548L524 547z"/>
<path style="fill:#ffc57f; stroke:none;" d="M447 548L448 549L447 548M526 548L527 549L526 548z"/>
<path style="fill:#ffddbd; stroke:none;" d="M527 548L528 549L527 548z"/>
<path style="fill:#ffc57f; stroke:none;" d="M448 549L449 550L448 549M528.667 549.333L529.333 549.667L528.667 549.333M531.667 550.333L532.333 550.667L531.667 550.333z"/>
<path style="fill:#ffddbd; stroke:none;" d="M449 551L450 552L449 551z"/>
<path style="fill:#ffc57f; stroke:none;" d="M534.667 551.333L535.333 551.667L534.667 551.333M450 552L451 553L450 552M537.667 552.333L538.333 552.667L537.667 552.333M541 553L542 554L541 553z"/>
<path style="fill:#ffddbd; stroke:none;" d="M542 553L543 554L542 553M451 554L452 555L451 554z"/>
<path style="fill:#ffc57f; stroke:none;" d="M544 554L545 555L544 554z"/>
<path style="fill:#ffddbd; stroke:none;" d="M545 554L546 555L545 554z"/>
<path style="fill:#ffc57f; stroke:none;" d="M452 555L453 556L452 555M548 555L549 556L548 555z"/>
<path style="fill:#ffddbd; stroke:none;" d="M549 555L550 556L549 555z"/>
<path style="fill:#ffc57f; stroke:none;" d="M552 556L553 557L552 556z"/>
<path style="fill:#ffddbd; stroke:none;" d="M553 556L554 557L553 556z"/>
<path style="fill:#ffc57f; stroke:none;" d="M556.667 557.333L557.333 557.667L556.667 557.333z"/>
<path style="fill:#ffddbd; stroke:none;" d="M558 557L559 558L558 557M560.667 557.333L561.333 557.667L560.667 557.333M563.667 557.333L564.333 557.667L563.667 557.333M566.667 557.333L567.333 557.667L566.667 557.333M569.667 557.333L570.333 557.667L569.667 557.333M572.667 557.333L573.333 557.667L572.667 557.333M575.667 557.333L576.333 557.667L575.667 557.333M578.667 557.333L579.333 557.667L578.667 557.333M581.667 557.333L582.333 557.667L581.667 557.333M584.667 557.333L585.333 557.667L584.667 557.333M587.667 557.333L588.333 557.667L587.667 557.333M590.667 557.333L591.333 557.667L590.667 557.333M593.667 557.333L594.333 557.667L593.667 557.333M596.667 557.333L597.333 557.667L596.667 557.333M599.667 557.333L600.333 557.667L599.667 557.333M602.667 557.333L603.333 557.667L602.667 557.333M605.667 557.333L606.333 557.667L605.667 557.333M608.667 557.333L609.333 557.667L608.667 557.333M611.667 557.333L612.333 557.667L611.667 557.333M614.667 557.333L615.333 557.667L614.667 557.333M617.667 557.333L618.333 557.667L617.667 557.333M620.667 557.333L621.333 557.667L620.667 557.333M623.667 557.333L624.333 557.667L623.667 557.333M626.667 557.333L627.333 557.667L626.667 557.333M629 557L629 558L713 558L687 557L629 557M454 558L455 559L454 558z"/>
<path style="fill:#ffc57f; stroke:none;" d="M715 558L715 559L718 559L715 558z"/>
<path style="fill:#ffddbd; stroke:none;" d="M718.667 558.333L719.333 558.667L718.667 558.333z"/>
<path style="fill:#ffc57f; stroke:none;" d="M455 559L456 560L455 559M721.667 559.333L722.333 559.667L721.667 559.333z"/>
<path style="fill:#ffddbd; stroke:none;" d="M723.667 559.333L724.333 559.667L723.667 559.333z"/>
<path style="fill:#ffc57f; stroke:none;" d="M726 560L727 561L726 560z"/>
<path style="fill:#ffddbd; stroke:none;" d="M727 560L728 561L727 560M456 561L457 562L456 561z"/>
<path style="fill:#ffc57f; stroke:none;" d="M729 561L730 562L729 561z"/>
<path style="fill:#ffddbd; stroke:none;" d="M730.667 561.333L731.333 561.667L730.667 561.333z"/>
<path style="fill:#ffc57f; stroke:none;" d="M457 562L458 563L457 562M732 562L733 563L732 562z"/>
<path style="fill:#ffddbd; stroke:none;" d="M733 562L734 563L733 562z"/>
<path style="fill:#ffc57f; stroke:none;" d="M735 563L736 564L735 563z"/>
<path style="fill:#ffddbd; stroke:none;" d="M458 564L459 565L458 564z"/>
<path style="fill:#ffc57f; stroke:none;" d="M737 564L738 565L737 564M459 565L460 566L459 565M739 565L740 566L739 565M460 566L461 567L460 566M741 566L742 567L741 566z"/>
<path style="fill:#ffddbd; stroke:none;" d="M743 567L744 568L743 567M461 568L462 569L461 568z"/>
<path style="fill:#ffc57f; stroke:none;" d="M744 568L745 569L744 568M462 569L463 570L462 569z"/>
<path style="fill:#ffddbd; stroke:none;" d="M746 569L747 570L746 569z"/>
<path style="fill:#ffc57f; stroke:none;" d="M747 570L748 571L747 570z"/>
<path style="fill:#ffddbd; stroke:none;" d="M463 571L464 572L463 571z"/>
<path style="fill:#ffc57f; stroke:none;" d="M748 571L749 572L748 571M464 572L465 573L464 572M749 572L750 573L749 572M465 573L466 574L465 573M750 573L751 574L750 573z"/>
<path style="fill:#ffddbd; stroke:none;" d="M466 575L467 576L466 575z"/>
<path style="fill:#ffc57f; stroke:none;" d="M467 576L468 577L467 576M468 577L469 578L468 577M756 579L757 580L756 579M757 580L758 581L757 580z"/>
<path style="fill:#ffddbd; stroke:none;" d="M471 581L472 582L471 581z"/>
<path style="fill:#ffc57f; stroke:none;" d="M758 581L759 582L758 581z"/>
<path style="fill:#ffddbd; stroke:none;" d="M472 582L473 583L472 582z"/>
<path style="fill:#ffc57f; stroke:none;" d="M759 582L760 583L759 582z"/>
<path style="fill:#ffddbd; stroke:none;" d="M473 583L474 584L473 583z"/>
<path style="fill:#ffc57f; stroke:none;" d="M760 583L761 584L760 583z"/>
<path style="fill:#ffddbd; stroke:none;" d="M474 584L475 585L474 584z"/>
<path style="fill:#ffc57f; stroke:none;" d="M761 584L762 585L761 584z"/>
<path style="fill:#ffddbd; stroke:none;" d="M475 585L476 586L475 585M762 585L763 586L762 585M476 586L477 587L476 586M763 586L764 587L763 586M764 587L765 588L764 587z"/>
<path style="fill:#ffc57f; stroke:none;" d="M479 588L480 589L479 588M480 589L481 590L480 589M481 590L482 591L481 590M766 590L767 591L766 590z"/>
<path style="fill:#ffddbd; stroke:none;" d="M482 591L483 592L482 591z"/>
<path style="fill:#ffc57f; stroke:none;" d="M767 591L768 592L767 591z"/>
<path style="fill:#ffddbd; stroke:none;" d="M483 592L484 593L483 592z"/>
<path style="fill:#ffc57f; stroke:none;" d="M768 592L769 593L768 592M485 593L486 594L485 593z"/>
<path style="fill:#ffddbd; stroke:none;" d="M769 593L770 594L769 593z"/>
<path style="fill:#ffc57f; stroke:none;" d="M486 594L487 595L486 594z"/>
<path style="fill:#ffddbd; stroke:none;" d="M770 594L771 595L770 594M487 595L488 596L487 595z"/>
<path style="fill:#ffc57f; stroke:none;" d="M489 596L490 597L489 596M490 597L491 598L490 597M772 597L773 598L772 597z"/>
<path style="fill:#ffddbd; stroke:none;" d="M491 598L492 599L491 598z"/>
<path style="fill:#ffc57f; stroke:none;" d="M773 598L774 599L773 598M493 599L494 600L493 599z"/>
<path style="fill:#ffddbd; stroke:none;" d="M774 599L775 600L774 599M494 600L495 601L494 600M775 600L776 601L775 600z"/>
<path style="fill:#ffc57f; stroke:none;" d="M496 601L497 602L496 601M498 602L499 603L498 602z"/>
<path style="fill:#ffddbd; stroke:none;" d="M499 603L500 604L499 603z"/>
<path style="fill:#ffc57f; stroke:none;" d="M777 603L778 604L777 603M501 604L502 605L501 604M778 604L779 605L778 604z"/>
<path style="fill:#ffddbd; stroke:none;" d="M502 605L503 606L502 605z"/>
<path style="fill:#ffc57f; stroke:none;" d="M503 605L504 606L503 605z"/>
<path style="fill:#ffddbd; stroke:none;" d="M779 605L780 606L779 605M504 606L505 607L504 606z"/>
<path style="fill:#ffc57f; stroke:none;" d="M506 607L507 608L506 607z"/>
<path style="fill:#ffddbd; stroke:none;" d="M507 608L508 609L507 608z"/>
<path style="fill:#ffc57f; stroke:none;" d="M508 608L509 609L508 608M781 608L782 609L781 608z"/>
<path style="fill:#ffddbd; stroke:none;" d="M509 609L510 610L509 609z"/>
<path style="fill:#ffc57f; stroke:none;" d="M782 609L783 610L782 609M511 610L512 611L511 610z"/>
<path style="fill:#ffddbd; stroke:none;" d="M783 610L784 611L783 610M512 611L513 612L512 611M784 611L785 612L784 611z"/>
<path style="fill:#ffc57f; stroke:none;" d="M514 612L515 613L514 612z"/>
<path style="fill:#ffddbd; stroke:none;" d="M515 613L516 614L515 613z"/>
<path style="fill:#ffc57f; stroke:none;" d="M516 613L517 614L516 613M785 613L786 614L785 613z"/>
<path style="fill:#ffddbd; stroke:none;" d="M517 614L518 615L517 614z"/>
<path style="fill:#ffc57f; stroke:none;" d="M786 614L787 615L786 614M519 615L520 616L519 615z"/>
<path style="fill:#ffddbd; stroke:none;" d="M787 615L788 616L787 615M520 616L521 617L520 616z"/>
<path style="fill:#ffc57f; stroke:none;" d="M522 617L523 618L522 617z"/>
<path style="fill:#ffddbd; stroke:none;" d="M523 618L524 619L523 618z"/>
<path style="fill:#ffc57f; stroke:none;" d="M524 618L525 619L524 618M789 618L790 619L789 618M525 619L526 620L525 619z"/>
<path style="fill:#ffddbd; stroke:none;" d="M790 619L791 620L790 619M526 620L527 621L526 620z"/>
<path style="fill:#ffc57f; stroke:none;" d="M527 620L528 621L527 620z"/>
<path style="fill:#ffddbd; stroke:none;" d="M791 620L792 621L791 620z"/>
<path style="fill:#ffc57f; stroke:none;" d="M528 621L529 622L528 621M530 622L531 623L530 622M792 622L793 623L792 622M531 623L532 624L531 623M793 623L794 624L793 623M533 624L534 625L533 624z"/>
<path style="fill:#ffddbd; stroke:none;" d="M794 624L795 625L794 624z"/>
<path style="fill:#ffc57f; stroke:none;" d="M534 625L535 626L534 625z"/>
<path style="fill:#ffddbd; stroke:none;" d="M535 626L536 627L535 626z"/>
<path style="fill:#ffc57f; stroke:none;" d="M795 626L796 627L795 626M537 627L538 628L537 627M796 627L797 628L796 627z"/>
<path style="fill:#ffddbd; stroke:none;" d="M538 628L539 629L538 628M797 628L798 629L797 628z"/>
<path style="fill:#ffc57f; stroke:none;" d="M540 629L541 630L540 629M541 630L542 631L541 630z"/>
<path style="fill:#ffddbd; stroke:none;" d="M799 630L800 631L799 630M542 631L543 632L542 631z"/>
<path style="fill:#ffc57f; stroke:none;" d="M800 632L801 633L800 632M545 633L546 634L545 633M801 633L802 634L801 633z"/>
<path style="fill:#ffddbd; stroke:none;" d="M802 634L803 635L802 634z"/>
<path style="fill:#ffc57f; stroke:none;" d="M547 636L548 637L547 636M804 637L805 638L804 637M548 638L549 639L548 638z"/>
<path style="fill:#ffddbd; stroke:none;" d="M805 638L806 639L805 638z"/>
<path style="fill:#ffc57f; stroke:none;" d="M549.333 640.667L549.667 641.333L549.333 640.667M807 641L808 642L807 641M808 642L809 643L808 642M550.333 643.667L550.667 644.333L550.333 643.667z"/>
<path style="fill:#ffddbd; stroke:none;" d="M809 643L810 644L809 643z"/>
<path style="fill:#ffc57f; stroke:none;" d="M810 645L811 646L810 645M811 646L812 647L811 646M551.333 647.667L551.667 648.333L551.333 647.667z"/>
<path style="fill:#ffddbd; stroke:none;" d="M812 647L813 648L812 647M551 649L552 650L551 649z"/>
<path style="fill:#ffc57f; stroke:none;" d="M814 650L815 651L814 650z"/>
<path style="fill:#ffddbd; stroke:none;" d="M815 651L816 652L815 651z"/>
<path style="fill:#ffc57f; stroke:none;" d="M552 652L552 655L553 655L552 652M817 654L818 655L817 654z"/>
<path style="fill:#ffddbd; stroke:none;" d="M552.333 655.667L552.667 656.333L552.333 655.667M818 655L819 656L818 655M819 656L820 657L819 656z"/>
<path style="fill:#ffc57f; stroke:none;" d="M820 658L821 659L820 658M821 659L822 660L821 659M553.333 660.667L553.667 661.333L553.333 660.667z"/>
<path style="fill:#ffddbd; stroke:none;" d="M822 660L823 661L822 660M553 662L553 665L554 665L553 662z"/>
<path style="fill:#ffc57f; stroke:none;" d="M823 662L824 663L823 662M824 663L825 664L824 663z"/>
<path style="fill:#ffddbd; stroke:none;" d="M825 664L826 665L825 664z"/>
<path style="fill:#ffc57f; stroke:none;" d="M554 667L554 671L555 671L554 667M827 667L828 668L827 667M828 668L829 669L828 668z"/>
<path style="fill:#ffddbd; stroke:none;" d="M829 669L830 670L829 669M554 671L555 672L554 671z"/>
<path style="fill:#ffc57f; stroke:none;" d="M830 671L831 672L830 671M831 672L832 673L831 672z"/>
<path style="fill:#ffddbd; stroke:none;" d="M840 672L840 676L841 676L840 672M832 673L833 674L832 673z"/>
<path style="fill:#ffc57f; stroke:none;" d="M116 674L116 678L117 678L116 674z"/>
<path style="fill:#ffddbd; stroke:none;" d="M833 674L834 675L833 674z"/>
<path style="fill:#ffc57f; stroke:none;" d="M555 675L555 678L556 678L555 675M833 675L834 676L833 675M834 676L835 677L834 676M840 676L840 679L841 679L840 676z"/>
<path style="fill:#ffddbd; stroke:none;" d="M835 677L836 678L835 677M555.333 678.667L555.667 679.333L555.333 678.667M836 678L837 679L836 678z"/>
<path style="fill:#ffc57f; stroke:none;" d="M837 680L838 681L837 680z"/>
<path style="fill:#ffddbd; stroke:none;" d="M117 681L118 682L117 681z"/>
<path style="fill:#ffc57f; stroke:none;" d="M838 681L839 682L838 681M117.333 682.667L117.667 683.333L117.333 682.667M839 682L840 683L839 682M556 683L556 686L557 686L556 683z"/>
<path style="fill:#ffddbd; stroke:none;" d="M118 686L119 687L118 686M556.333 686.667L556.667 687.333L556.333 686.667z"/>
<path style="fill:#ffc57f; stroke:none;" d="M118 687L119 688L118 687z"/>
<path style="fill:#ffddbd; stroke:none;" d="M119 689L120 690L119 689z"/>
<path style="fill:#ffc57f; stroke:none;" d="M119 690L120 691L119 690M761 690L762 691L761 690z"/>
<path style="fill:#ffffff; stroke:none;" d="M757 739C774.287 739 792.224 739.511 807 729C798.919 717.529 785.598 707.614 775 698.424C772.419 696.187 766.506 688.922 762.514 691.137C759.013 693.079 760.141 699.744 759.83 703C758.689 714.947 757.001 726.986 757 739z"/>
<path style="fill:#ffddbd; stroke:none;" d="M765 690L766 691L765 690z"/>
<path style="fill:#ffc57f; stroke:none;" d="M766 690L767 691L766 690M557 691L557 694L558 694L557 691M767 691L768 692L767 691z"/>
<path style="fill:#ffddbd; stroke:none;" d="M120 692L121 693L120 692M760.333 692.667L760.667 693.333L760.333 692.667z"/>
<path style="fill:#ffc57f; stroke:none;" d="M768 692L769 693L768 692M120 693L121 694L120 693M769 693L770 694L769 693z"/>
<path style="fill:#ffddbd; stroke:none;" d="M557.333 694.667L557.667 695.333L557.333 694.667M770 694L771 695L770 694M121 695L122 696L121 695M771 695L772 696L771 695z"/>
<path style="fill:#ffc57f; stroke:none;" d="M121 696L122 697L121 696M759 696L759 701L760 701L759 696z"/>
<path style="fill:#ffddbd; stroke:none;" d="M772 696L773 697L772 696M773 697L774 698L773 697z"/>
<path style="fill:#ffc57f; stroke:none;" d="M122 698L123 699L122 698M558 699L558 702L559 702L558 699M123 700L124 701L123 700M777 700L778 701L777 700z"/>
<path style="fill:#ffddbd; stroke:none;" d="M759 701L759 706L760 706L759 701z"/>
<path style="fill:#ffc57f; stroke:none;" d="M778 701L779 702L778 701M124 702L125 703L124 702z"/>
<path style="fill:#ffddbd; stroke:none;" d="M558 702L558 705L559 705L558 702z"/>
<path style="fill:#ffc57f; stroke:none;" d="M779 702L780 703L779 702z"/>
<path style="fill:#ffddbd; stroke:none;" d="M125 703L126 704L125 703z"/>
<path style="fill:#ffc57f; stroke:none;" d="M780 703L781 704L780 703M125 704L126 705L125 704M781 704L782 705L781 704z"/>
<path style="fill:#ffddbd; stroke:none;" d="M126 705L127 706L126 705M782 705L783 706L782 705M783 706L784 707L783 706z"/>
<path style="fill:#ffc57f; stroke:none;" d="M127 707L128 708L127 707M559 707L559 710L560 710L559 707z"/>
<path style="fill:#ffddbd; stroke:none;" d="M784 707L785 708L784 707M128 708L129 709L128 708z"/>
<path style="fill:#ffc57f; stroke:none;" d="M758 708L758 713L759 713L758 708z"/>
<path style="fill:#ffddbd; stroke:none;" d="M785 708L786 709L785 708z"/>
<path style="fill:#ffc57f; stroke:none;" d="M129 710L130 711L129 710z"/>
<path style="fill:#ffddbd; stroke:none;" d="M559 710L559 713L560 713L559 710M130 711L131 712L130 711z"/>
<path style="fill:#ffc57f; stroke:none;" d="M789 711L790 712L789 711M790 712L791 713L790 712z"/>
<path style="fill:#ffddbd; stroke:none;" d="M758 713L758 717L759 717L758 713z"/>
<path style="fill:#ffc57f; stroke:none;" d="M791 713L792 714L791 713M132 714L133 715L132 714M792 714L793 715L792 714M133 715L134 716L133 715M560 715L560 718L561 718L560 715z"/>
<path style="fill:#ffddbd; stroke:none;" d="M793 715L794 716L793 715M134 716L135 717L134 716M794 716L795 717L794 716M135 717L136 718L135 717M795 717L796 718L795 717M136 718L137 719L136 718M560 718L560 721L561 721L560 718M796 718L797 719L796 718M137 719L138 720L137 719M138 720L139 721L138 720z"/>
<path style="fill:#ffc57f; stroke:none;" d="M757 720L757 725L758 725L757 720M139 721L140 722L139 721M800 721L801 722L800 721M140 722L141 723L140 722M561 722L561 726L562 726L561 722M801 722L802 723L801 722M141 723L142 724L141 723M802 723L803 724L802 723M803 724L804 725L803 724z"/>
<path style="fill:#ffddbd; stroke:none;" d="M144 725L145 726L144 725M757 725L757 729L758 729L757 725z"/>
<path style="fill:#ffc57f; stroke:none;" d="M804 725L805 726L804 725M145 726L146 727L145 726z"/>
<path style="fill:#ffddbd; stroke:none;" d="M561 726L561 729L562 729L561 726M805 726L806 727L805 726M147 727L148 728L147 727M806 727L807 728L806 727z"/>
<path style="fill:#ffc57f; stroke:none;" d="M148 728L149 729L148 728z"/>
<path style="fill:#ffddbd; stroke:none;" d="M807 728L806 730L807 728M150 729L151 730L150 729z"/>
<path style="fill:#ffc57f; stroke:none;" d="M807 729L808 730L807 729M151 730L152 731L151 730z"/>
<path style="fill:#ffddbd; stroke:none;" d="M152 730L153 731L152 730z"/>
<path style="fill:#ffc57f; stroke:none;" d="M562 730L562 734L563 734L562 730M805 730L806 731L805 730M153 731L154 732L153 731M803 731L804 732L803 731M155 732L156 733L155 732M756 732L756 738L757 738L756 732M801 732L802 733L801 732M157 733L158 734L157 733M799 733L800 734L799 733z"/>
<path style="fill:#ffddbd; stroke:none;" d="M160 734L161 735L160 734M562 734L562 737L563 737L562 734M796 734L797 735L796 734z"/>
<path style="fill:#ffc57f; stroke:none;" d="M797 734L798 735L797 734M162 735L163 736L162 735z"/>
<path style="fill:#ffddbd; stroke:none;" d="M163 735L164 736L163 735z"/>
<path style="fill:#ffc57f; stroke:none;" d="M794 735L795 736L794 735M165 736L166 737L165 736z"/>
<path style="fill:#ffddbd; stroke:none;" d="M166 736L167 737L166 736M790 736L791 737L790 736z"/>
<path style="fill:#ffc57f; stroke:none;" d="M791 736L792 737L791 736M168 737L169 738L168 737z"/>
<path style="fill:#ffddbd; stroke:none;" d="M169.667 737.333L170.333 737.667L169.667 737.333M786.667 737.333L787.333 737.667L786.667 737.333z"/>
<path style="fill:#ffc57f; stroke:none;" d="M788 737L789 738L788 737M172.667 738.333L173.333 738.667L172.667 738.333z"/>
<path style="fill:#ffddbd; stroke:none;" d="M174.667 738.333L175.333 738.667L174.667 738.333z"/>
<path style="fill:#ffc57f; stroke:none;" d="M563 738L564 739L563 738z"/>
<path style="fill:#ffddbd; stroke:none;" d="M756 738L756 739L775 740L775 739L756 738M780 738L780 739L783 739L780 738z"/>
<path style="fill:#ffc57f; stroke:none;" d="M783.667 738.333L784.333 738.667L783.667 738.333M178 739L178 740L183 740L178 739z"/>
<path style="fill:#ffddbd; stroke:none;" d="M183 739L183 740L563 740L529 739L452 739L183 739z"/>
<path style="fill:#ffc57f; stroke:none;" d="M756 739L757 740L756 739M775 739L775 740L779 740L775 739z"/>
<path style="fill:#47714d; stroke:none;" d="M0 807L0 960L153 960L153 959C96.8174 958.963 40.8518 914.728 17.2585 866C11.4235 853.949 6.64394 841.059 3.65123 828C2.13662 821.391 2.56335 813.107 0 807M959 807C958.95 881.736 881.736 958.951 807 959L807 960L960 960L960 853C960 840.009 964.007 818.932 959 807z"/>
</svg>
